<?xml version="1.0" encoding="UTF-8" standalone="no"?>
<svg
   xmlns:dc="http://purl.org/dc/elements/1.1/"
   xmlns:cc="http://creativecommons.org/ns#"
   xmlns:rdf="http://www.w3.org/1999/02/22-rdf-syntax-ns#"
   xmlns:svg="http://www.w3.org/2000/svg"
   xmlns="http://www.w3.org/2000/svg"
   viewBox="0 0 552 216"
   height="216"
   width="552"
   xml:space="preserve"
   id="svg2"
   version="1.1"><metadata
     id="metadata8"><rdf:RDF><cc:Work
         rdf:about=""><dc:format>image/svg+xml</dc:format><dc:type
           rdf:resource="http://purl.org/dc/dcmitype/StillImage" /></cc:Work></rdf:RDF></metadata><defs
     id="defs6"><clipPath
       id="clipPath18"
       clipPathUnits="userSpaceOnUse"><path
         id="path16"
         d="M 0,162 H 414 V 0 H 0 Z" /></clipPath></defs><g
     transform="matrix(1.3333333,0,0,-1.3333333,0,216)"
     id="g10"><g
       id="g12"><g
         clip-path="url(#clipPath18)"
         id="g14"><g
           transform="translate(207.2051,107.25)"
           id="g20"><path
             id="path22"
             style="fill:#ffffff;fill-opacity:1;fill-rule:nonzero;stroke:none"
             d="m 0,0 v -52.5 c 0,-0.414 -0.336,-0.75 -0.75,-0.75 h -5.506 c -2.545,0 -4.915,1.29 -6.298,3.426 l -24.783,38.308 0.849,-19.131 V -52.5 c 0,-0.414 -0.336,-0.75 -0.75,-0.75 h -7.217 c -0.414,0 -0.75,0.336 -0.75,0.75 V 0 c 0,0.414 0.336,0.75 0.75,0.75 h 5.434 c 2.542,0 4.911,-1.288 6.292,-3.421 l 24.784,-38.236 -0.772,19.054 V 0 c 0,0.414 0.336,0.75 0.75,0.75 H -0.75 C -0.336,0.75 0,0.414 0,0" /></g><g
           transform="translate(281.0137,54)"
           id="g24"><path
             id="path26"
             style="fill:#ffffff;fill-opacity:1;fill-rule:nonzero;stroke:none"
             d="m 0,0 h -7.645 c -0.526,0 -0.889,0.529 -0.699,1.021 l 20.233,52.26 C 12.057,53.715 12.474,54 12.938,54 h 9.567 c 0.464,0 0.881,-0.285 1.049,-0.719 L 43.786,1.021 C 43.977,0.529 43.614,0 43.087,0 h -7.645 c -0.311,0 -0.59,0.192 -0.701,0.484 L 18.423,43.511 c -0.244,0.645 -1.157,0.645 -1.402,0 L 0.701,0.484 C 0.591,0.192 0.312,0 0,0" /></g><g
           transform="translate(377.8389,55.2119)"
           id="g28"><path
             id="path30"
             style="fill:#ffffff;fill-opacity:1;fill-rule:nonzero;stroke:none"
             d="m 0,0 -15.175,19.386 c 8.564,1.619 13.578,7.405 13.578,16.277 0,10.182 -6.634,17.125 -18.36,17.125 h -21.169 c -0.622,0 -1.125,-0.504 -1.125,-1.125 0,-3.979 3.226,-7.206 7.206,-7.206 h 14.162 c 7.098,0 10.492,-3.626 10.492,-8.872 0,-5.245 -3.318,-8.948 -10.492,-8.948 h -20.243 c -0.622,0 -1.125,-0.504 -1.125,-1.125 V -0.462 c 0,-0.414 0.335,-0.75 0.75,-0.75 h 7.218 c 0.414,0 0.75,0.336 0.75,0.75 v 19.384 h 8.331 L -12.026,1.727 c 1.42,-1.853 3.62,-2.939 5.953,-2.939 h 5.483 c 0.625,0 0.976,0.72 0.59,1.212" /></g><g
           transform="translate(258.1709,62.3311)"
           id="g32"><path
             id="path34"
             style="fill:#ffffff;fill-opacity:1;fill-rule:nonzero;stroke:none"
             d="m 0,0 h -25.037 c -0.414,0 -0.75,0.336 -0.75,0.75 v 13.543 c 0,0.414 0.336,0.75 0.75,0.75 h 23.109 c 0.414,0 0.75,0.336 0.75,0.75 v 6.832 c 0,0.414 -0.336,0.75 -0.75,0.75 H -33.38 c -0.621,0 -1.125,-0.504 -1.125,-1.125 V -7.206 c 0,-0.621 0.504,-1.125 1.125,-1.125 H 0 c 0.414,0 0.75,0.336 0.75,0.75 V -0.75 C 0.75,-0.336 0.414,0 0,0 m 0,45.669 h -33.503 c -0.553,0 -1.002,-0.448 -1.002,-1.002 0,-4.048 3.282,-7.329 7.33,-7.329 H 0 c 0.414,0 0.75,0.336 0.75,0.75 v 6.831 c 0,0.414 -0.336,0.75 -0.75,0.75" /></g><g
           transform="translate(108.2383,121.4287)"
           id="g36"><path
             id="path38"
             style="fill:#ffffff;fill-opacity:1;fill-rule:nonzero;stroke:none"
             d="m 0,0 -18.816,-27.928 c -1.305,-1.937 1.203,-4.159 2.968,-2.629 l 18.523,16.052 c 0.485,0.421 1.241,0.076 1.241,-0.566 V -65.36 c 0,-0.702 -0.877,-1.019 -1.326,-0.481 L -53.373,1.176 c -1.822,2.153 -4.5,3.395 -7.321,3.395 h -1.954 c -5.296,0 -9.59,-4.294 -9.59,-9.59 v -70.82 c 0,-5.296 4.294,-9.59 9.59,-9.59 3.333,0 6.427,1.731 8.171,4.572 l 18.817,27.927 c 1.305,1.938 -1.203,4.159 -2.969,2.629 l -18.522,-16.052 c -0.486,-0.421 -1.242,-0.076 -1.242,0.567 v 50.289 c 0,0.701 0.877,1.018 1.327,0.48 l 55.962,-67.016 c 1.823,-2.154 4.5,-3.396 7.322,-3.396 h 1.954 c 5.296,0 9.59,4.294 9.59,9.59 v 70.82 c 0,5.296 -4.294,9.59 -9.59,9.59 C 4.839,4.571 1.744,2.841 0,0" /></g></g></g></g></svg>