<?xml version="1.0" encoding="UTF-8" standalone="no"?>
<svg
   xmlns:dc="http://purl.org/dc/elements/1.1/"
   xmlns:cc="http://creativecommons.org/ns#"
   xmlns:rdf="http://www.w3.org/1999/02/22-rdf-syntax-ns#"
   xmlns:svg="http://www.w3.org/2000/svg"
   xmlns="http://www.w3.org/2000/svg"
   viewBox="0 0 384 384"
   height="384"
   width="384"
   xml:space="preserve"
   id="svg2"
   version="1.1"><metadata
     id="metadata8"><rdf:RDF><cc:Work
         rdf:about=""><dc:format>image/svg+xml</dc:format><dc:type
           rdf:resource="http://purl.org/dc/dcmitype/StillImage" /></cc:Work></rdf:RDF></metadata><defs
     id="defs6"><clipPath
       id="clipPath18"
       clipPathUnits="userSpaceOnUse"><path
         id="path16"
         d="M 0,288 H 288 V 0 H 0 Z" /></clipPath></defs><g
     transform="matrix(1.3333333,0,0,-1.3333333,0,384)"
     id="g10"><g
       id="g12"><g
         clip-path="url(#clipPath18)"
         id="g14"><g
           transform="translate(187.5811,208.186)"
           id="g20"><path
             id="path22"
             style="fill:#ffffff;fill-opacity:1;fill-rule:nonzero;stroke:none"
             d="m 0,0 -30.105,-44.684 c -2.089,-3.101 1.924,-6.654 4.75,-4.207 l 29.634,25.684 c 0.778,0.673 1.986,0.122 1.986,-0.907 v -80.463 c 0,-1.122 -1.402,-1.63 -2.121,-0.769 L -85.396,1.881 c -2.917,3.446 -7.201,5.433 -11.714,5.433 h -3.127 c -8.474,0 -15.344,-6.87 -15.344,-15.344 v -113.312 c 0,-8.474 6.87,-15.344 15.344,-15.344 5.333,0 10.284,2.769 13.075,7.314 l 30.105,44.684 c 2.089,3.101 -1.924,6.654 -4.75,4.207 l -29.634,-25.684 c -0.778,-0.673 -1.986,-0.122 -1.986,0.907 v 80.463 c 0,1.122 1.402,1.63 2.121,0.769 l 89.54,-107.227 c 2.916,-3.446 7.201,-5.433 11.714,-5.433 h 3.127 c 8.474,0 15.344,6.87 15.344,15.344 V -8.03 c 0,8.474 -6.87,15.344 -15.344,15.344 C 7.742,7.314 2.791,4.544 0,0" /></g></g></g></g></svg>